<svg width="114pt" height="21pt" viewBox="0 0 116 23"
    xmlns="http://www.w3.org/2000/svg">
    <g stroke-linecap="round" fill-rule="evenodd" fill="#6600ff">
        <path d="M 10.938 15.479 L 10.547 15.088 A 14.017 14.017 0 0 1 8.46 16.182 A 11.406 11.406 0 0 1 6.836 16.724 A 15.596 15.596 0 0 1 4.146 17.142 A 18.693 18.693 0 0 1 2.832 17.188 L 2.368 17.188 A 11.008 11.008 0 0 1 1.636 17.163 A 10.939 10.939 0 0 0 1.1 17.14 A 9.829 9.829 0 0 0 0.928 17.139 L 0.44 17.139 Q 0.051 17.052 0.006 16.698 A 0.771 0.771 0 0 1 0 16.602 L 0 15.918 A 2.621 2.621 0 0 1 0.143 15.039 A 2.279 2.279 0 0 1 0.659 14.209 A 5.041 5.041 0 0 1 1.644 13.423 A 6.403 6.403 0 0 1 2.319 13.062 Q 3.32 12.598 4.468 12.28 A 166.143 166.143 0 0 0 5.579 11.969 A 136.253 136.253 0 0 0 6.616 11.67 A 11.041 11.041 0 0 0 7.319 11.44 Q 7.66 11.315 7.949 11.178 A 5.585 5.585 0 0 0 8.277 11.011 A 1.871 1.871 0 0 0 8.578 10.806 Q 8.936 10.503 8.936 10.107 A 6.815 6.815 0 0 0 8.819 8.881 A 9.172 9.172 0 0 0 8.545 7.788 A 25.738 25.738 0 0 0 7.617 5.298 A 32.721 32.721 0 0 0 6.936 3.818 A 26.896 26.896 0 0 0 6.519 3.003 A 38.679 38.679 0 0 1 6.258 2.507 Q 5.896 1.807 5.713 1.367 L 5.713 0 A 2.014 2.014 0 0 1 6.086 0.032 Q 6.491 0.109 6.714 0.366 A 2.454 2.454 0 0 1 7.108 0.998 A 2.964 2.964 0 0 1 7.202 1.245 A 70.898 70.898 0 0 0 7.544 2.246 A 1.543 1.543 0 0 0 7.748 2.644 A 1.266 1.266 0 0 0 8.106 2.979 L 11.377 10.254 A 1.304 1.304 0 0 0 11.484 10.415 Q 11.548 10.495 11.615 10.548 A 0.476 0.476 0 0 0 11.817 10.645 Q 11.981 10.677 12.211 10.688 A 5.165 5.165 0 0 0 12.451 10.693 A 2.703 2.703 0 0 0 12.854 10.665 A 2.017 2.017 0 0 0 13.233 10.571 A 0.591 0.591 0 0 0 13.473 10.403 Q 13.621 10.237 13.73 9.934 A 2.746 2.746 0 0 0 13.77 9.815 A 19.698 19.698 0 0 1 13.603 9.674 Q 13.338 9.448 12.912 9.073 A 124.636 124.636 0 0 1 12.866 9.033 A 16.1 16.1 0 0 1 11.97 8.179 A 18.703 18.703 0 0 1 11.646 7.837 A 10.473 10.473 0 0 1 10.63 6.559 A 9.642 9.642 0 0 1 10.571 6.47 Q 10.249 5.977 10.151 5.544 A 1.663 1.663 0 0 1 10.108 5.176 Q 10.108 4.736 10.352 4.224 A 0.943 0.943 0 0 1 10.571 3.921 Q 10.757 3.755 11.03 3.72 A 1.195 1.195 0 0 1 11.182 3.711 L 11.279 3.76 L 11.377 3.76 L 14.209 6.641 L 14.258 6.641 L 14.404 6.641 A 0.749 0.749 0 0 0 14.949 6.408 A 1.133 1.133 0 0 0 15.064 6.274 A 5.227 5.227 0 0 0 15.35 5.837 A 6.893 6.893 0 0 0 15.576 5.42 A 51.385 51.385 0 0 1 16.065 4.468 A 2.437 2.437 0 0 1 16.292 4.11 Q 16.445 3.912 16.626 3.777 A 1.508 1.508 0 0 1 16.651 3.76 L 16.748 3.76 A 0.156 0.156 0 0 0 16.776 3.758 Q 16.791 3.755 16.803 3.749 A 0.072 0.072 0 0 0 16.821 3.735 L 16.846 3.711 L 16.943 3.76 L 17.041 3.76 A 1.911 1.911 0 0 0 17.093 3.785 Q 17.203 3.835 17.432 3.931 A 3.033 3.033 0 0 1 17.566 3.99 Q 17.749 4.077 17.822 4.15 A 1.994 1.994 0 0 0 17.823 4.201 Q 17.826 4.315 17.84 4.604 A 81.95 81.95 0 0 0 17.847 4.736 A 51.338 51.338 0 0 1 17.856 4.934 Q 17.871 5.257 17.871 5.371 A 6.32 6.32 0 0 1 17.71 6.814 A 5.774 5.774 0 0 1 17.627 7.129 Q 17.383 7.959 17.383 8.838 A 1.616 1.616 0 0 0 17.531 9.536 Q 17.681 9.854 17.984 10.1 A 1.997 1.997 0 0 0 17.993 10.107 A 13.807 13.807 0 0 0 19.263 11.011 Q 19.922 11.426 20.532 11.89 A 1.618 1.618 0 0 1 20.928 12.311 A 1.419 1.419 0 0 1 21.143 13.086 A 1.416 1.416 0 0 1 21.085 13.499 A 1.094 1.094 0 0 1 20.752 14.014 A 1.37 1.37 0 0 1 19.997 14.342 A 1.83 1.83 0 0 1 19.776 14.356 Q 18.848 14.356 17.969 13.892 A 4.122 4.122 0 0 0 17.035 13.53 A 3.42 3.42 0 0 0 16.211 13.428 A 0.352 0.352 0 0 0 16.185 13.429 Q 16.143 13.432 16.066 13.444 A 4.529 4.529 0 0 0 16.016 13.452 A 4.356 4.356 0 0 1 15.956 13.462 Q 15.876 13.474 15.836 13.476 A 0.287 0.287 0 0 1 15.82 13.477 A 20.674 20.674 0 0 0 15.559 14.117 Q 15.431 14.446 15.299 14.814 A 35.093 35.093 0 0 0 15.21 15.064 A 62.99 62.99 0 0 0 14.734 16.473 A 72.264 72.264 0 0 0 14.575 16.968 Q 14.258 17.969 14.038 18.945 A 12.989 12.989 0 0 0 13.861 19.885 A 9.828 9.828 0 0 0 13.77 20.752 A 0.101 0.101 0 0 1 13.737 20.772 Q 13.657 20.805 13.42 20.824 A 4.336 4.336 0 0 1 13.403 20.825 A 21.308 21.308 0 0 1 13.275 20.835 Q 13.114 20.846 13.032 20.849 A 1.361 1.361 0 0 1 12.988 20.85 Q 12.207 20.85 11.792 20.142 A 4.425 4.425 0 0 1 11.321 18.97 A 5.327 5.327 0 0 1 11.231 18.53 Q 11.084 17.627 11.035 16.748 Q 10.988 15.902 10.941 15.508 A 5.479 5.479 0 0 0 10.938 15.479 Z M 56.983 15.479 L 56.592 15.088 A 14.017 14.017 0 0 1 54.505 16.182 A 11.406 11.406 0 0 1 52.881 16.724 A 15.596 15.596 0 0 1 50.191 17.142 A 18.693 18.693 0 0 1 48.877 17.188 L 48.413 17.188 A 11.008 11.008 0 0 1 47.681 17.163 A 10.939 10.939 0 0 0 47.145 17.14 A 9.829 9.829 0 0 0 46.973 17.139 L 46.485 17.139 Q 46.096 17.052 46.051 16.698 A 0.771 0.771 0 0 1 46.045 16.602 L 46.045 15.918 A 2.621 2.621 0 0 1 46.187 15.039 A 2.279 2.279 0 0 1 46.704 14.209 A 5.041 5.041 0 0 1 47.689 13.423 A 6.403 6.403 0 0 1 48.364 13.062 Q 49.365 12.598 50.513 12.28 A 166.143 166.143 0 0 0 51.624 11.969 A 136.253 136.253 0 0 0 52.661 11.67 A 11.041 11.041 0 0 0 53.364 11.44 Q 53.705 11.315 53.994 11.178 A 5.585 5.585 0 0 0 54.321 11.011 A 1.871 1.871 0 0 0 54.623 10.806 Q 54.981 10.503 54.981 10.107 A 6.815 6.815 0 0 0 54.864 8.881 A 9.172 9.172 0 0 0 54.59 7.788 A 25.738 25.738 0 0 0 53.662 5.298 A 32.721 32.721 0 0 0 52.981 3.818 A 26.896 26.896 0 0 0 52.564 3.003 A 38.679 38.679 0 0 1 52.303 2.507 Q 51.941 1.807 51.758 1.367 L 51.758 0 A 2.014 2.014 0 0 1 52.131 0.032 Q 52.536 0.109 52.759 0.366 A 2.454 2.454 0 0 1 53.153 0.998 A 2.964 2.964 0 0 1 53.247 1.245 A 70.898 70.898 0 0 0 53.589 2.246 A 1.543 1.543 0 0 0 53.793 2.644 A 1.266 1.266 0 0 0 54.151 2.979 L 57.422 10.254 A 1.304 1.304 0 0 0 57.529 10.415 Q 57.593 10.495 57.66 10.548 A 0.476 0.476 0 0 0 57.861 10.645 Q 58.025 10.677 58.256 10.688 A 5.165 5.165 0 0 0 58.496 10.693 A 2.703 2.703 0 0 0 58.899 10.665 A 2.017 2.017 0 0 0 59.277 10.571 A 0.591 0.591 0 0 0 59.518 10.403 Q 59.666 10.237 59.775 9.934 A 2.746 2.746 0 0 0 59.815 9.815 A 19.698 19.698 0 0 1 59.648 9.674 Q 59.383 9.448 58.956 9.073 A 124.636 124.636 0 0 1 58.911 9.033 A 16.1 16.1 0 0 1 58.015 8.179 A 18.703 18.703 0 0 1 57.691 7.837 A 10.473 10.473 0 0 1 56.675 6.559 A 9.642 9.642 0 0 1 56.616 6.47 Q 56.294 5.977 56.195 5.544 A 1.663 1.663 0 0 1 56.152 5.176 Q 56.152 4.736 56.397 4.224 A 0.943 0.943 0 0 1 56.616 3.921 Q 56.802 3.755 57.075 3.72 A 1.195 1.195 0 0 1 57.227 3.711 L 57.324 3.76 L 57.422 3.76 L 60.254 6.641 L 60.303 6.641 L 60.449 6.641 A 0.749 0.749 0 0 0 60.994 6.408 A 1.133 1.133 0 0 0 61.109 6.274 A 5.227 5.227 0 0 0 61.395 5.837 A 6.893 6.893 0 0 0 61.621 5.42 A 51.385 51.385 0 0 1 62.11 4.468 A 2.437 2.437 0 0 1 62.337 4.11 Q 62.49 3.912 62.671 3.777 A 1.508 1.508 0 0 1 62.695 3.76 L 62.793 3.76 A 0.156 0.156 0 0 0 62.821 3.758 Q 62.836 3.755 62.847 3.749 A 0.072 0.072 0 0 0 62.866 3.735 L 62.891 3.711 L 62.988 3.76 L 63.086 3.76 A 1.911 1.911 0 0 0 63.138 3.785 Q 63.248 3.835 63.477 3.931 A 3.033 3.033 0 0 1 63.611 3.99 Q 63.794 4.077 63.867 4.15 A 1.994 1.994 0 0 0 63.868 4.201 Q 63.871 4.315 63.885 4.604 A 81.95 81.95 0 0 0 63.892 4.736 A 51.338 51.338 0 0 1 63.901 4.934 Q 63.916 5.257 63.916 5.371 A 6.32 6.32 0 0 1 63.755 6.814 A 5.774 5.774 0 0 1 63.672 7.129 Q 63.428 7.959 63.428 8.838 A 1.616 1.616 0 0 0 63.576 9.536 Q 63.726 9.854 64.029 10.1 A 1.997 1.997 0 0 0 64.038 10.107 A 13.807 13.807 0 0 0 65.308 11.011 Q 65.967 11.426 66.577 11.89 A 1.618 1.618 0 0 1 66.972 12.311 A 1.419 1.419 0 0 1 67.188 13.086 A 1.416 1.416 0 0 1 67.13 13.499 A 1.094 1.094 0 0 1 66.797 14.014 A 1.37 1.37 0 0 1 66.042 14.342 A 1.83 1.83 0 0 1 65.82 14.356 Q 64.893 14.356 64.014 13.892 A 4.122 4.122 0 0 0 63.08 13.53 A 3.42 3.42 0 0 0 62.256 13.428 A 0.352 0.352 0 0 0 62.23 13.429 Q 62.188 13.432 62.111 13.444 A 4.529 4.529 0 0 0 62.061 13.452 A 4.356 4.356 0 0 1 62.001 13.462 Q 61.921 13.474 61.881 13.476 A 0.287 0.287 0 0 1 61.865 13.477 A 20.674 20.674 0 0 0 61.604 14.117 Q 61.476 14.446 61.344 14.814 A 35.093 35.093 0 0 0 61.255 15.064 A 62.99 62.99 0 0 0 60.779 16.473 A 72.264 72.264 0 0 0 60.62 16.968 Q 60.303 17.969 60.083 18.945 A 12.989 12.989 0 0 0 59.906 19.885 A 9.828 9.828 0 0 0 59.815 20.752 A 0.101 0.101 0 0 1 59.782 20.772 Q 59.702 20.805 59.465 20.824 A 4.336 4.336 0 0 1 59.448 20.825 A 21.308 21.308 0 0 1 59.32 20.835 Q 59.159 20.846 59.076 20.849 A 1.361 1.361 0 0 1 59.033 20.85 Q 58.252 20.85 57.837 20.142 A 4.425 4.425 0 0 1 57.366 18.97 A 5.327 5.327 0 0 1 57.276 18.53 Q 57.129 17.627 57.08 16.748 Q 57.033 15.902 56.986 15.508 A 5.479 5.479 0 0 0 56.983 15.479 Z M 103.027 15.479 L 102.637 15.088 A 14.017 14.017 0 0 1 100.549 16.182 A 11.406 11.406 0 0 1 98.926 16.724 A 15.596 15.596 0 0 1 96.236 17.142 A 18.693 18.693 0 0 1 94.922 17.188 L 94.458 17.188 A 11.008 11.008 0 0 1 93.726 17.163 A 10.939 10.939 0 0 0 93.19 17.14 A 9.829 9.829 0 0 0 93.018 17.139 L 92.529 17.139 Q 92.141 17.052 92.096 16.698 A 0.771 0.771 0 0 1 92.09 16.602 L 92.09 15.918 A 2.621 2.621 0 0 1 92.232 15.039 A 2.279 2.279 0 0 1 92.749 14.209 A 5.041 5.041 0 0 1 93.734 13.423 A 6.403 6.403 0 0 1 94.409 13.062 Q 95.41 12.598 96.558 12.28 A 166.143 166.143 0 0 0 97.669 11.969 A 136.253 136.253 0 0 0 98.706 11.67 A 11.041 11.041 0 0 0 99.409 11.44 Q 99.75 11.315 100.039 11.178 A 5.585 5.585 0 0 0 100.366 11.011 A 1.871 1.871 0 0 0 100.668 10.806 Q 101.026 10.503 101.026 10.107 A 6.815 6.815 0 0 0 100.909 8.881 A 9.172 9.172 0 0 0 100.635 7.788 A 25.738 25.738 0 0 0 99.707 5.298 A 32.721 32.721 0 0 0 99.026 3.818 A 26.896 26.896 0 0 0 98.609 3.003 A 38.679 38.679 0 0 1 98.348 2.507 Q 97.986 1.807 97.803 1.367 L 97.803 0 A 2.014 2.014 0 0 1 98.176 0.032 Q 98.581 0.109 98.804 0.366 A 2.454 2.454 0 0 1 99.198 0.998 A 2.964 2.964 0 0 1 99.292 1.245 A 70.898 70.898 0 0 0 99.634 2.246 A 1.543 1.543 0 0 0 99.838 2.644 A 1.266 1.266 0 0 0 100.195 2.979 L 103.467 10.254 A 1.304 1.304 0 0 0 103.574 10.415 Q 103.637 10.495 103.705 10.548 A 0.476 0.476 0 0 0 103.906 10.645 Q 104.07 10.677 104.301 10.688 A 5.165 5.165 0 0 0 104.541 10.693 A 2.703 2.703 0 0 0 104.944 10.665 A 2.017 2.017 0 0 0 105.322 10.571 A 0.591 0.591 0 0 0 105.563 10.403 Q 105.711 10.237 105.82 9.934 A 2.746 2.746 0 0 0 105.86 9.815 A 19.698 19.698 0 0 1 105.693 9.674 Q 105.428 9.448 105.001 9.073 A 124.636 124.636 0 0 1 104.956 9.033 A 16.1 16.1 0 0 1 104.06 8.179 A 18.703 18.703 0 0 1 103.735 7.837 A 10.473 10.473 0 0 1 102.72 6.559 A 9.642 9.642 0 0 1 102.661 6.47 Q 102.339 5.977 102.24 5.544 A 1.663 1.663 0 0 1 102.197 5.176 Q 102.197 4.736 102.442 4.224 A 0.943 0.943 0 0 1 102.661 3.921 Q 102.847 3.755 103.12 3.72 A 1.195 1.195 0 0 1 103.272 3.711 L 103.369 3.76 L 103.467 3.76 L 106.299 6.641 L 106.348 6.641 L 106.494 6.641 A 0.749 0.749 0 0 0 107.039 6.408 A 1.133 1.133 0 0 0 107.153 6.274 A 5.227 5.227 0 0 0 107.44 5.837 A 6.893 6.893 0 0 0 107.666 5.42 A 51.385 51.385 0 0 1 108.154 4.468 A 2.437 2.437 0 0 1 108.382 4.11 Q 108.535 3.912 108.716 3.777 A 1.508 1.508 0 0 1 108.74 3.76 L 108.838 3.76 A 0.156 0.156 0 0 0 108.866 3.758 Q 108.881 3.755 108.892 3.749 A 0.072 0.072 0 0 0 108.911 3.735 L 108.936 3.711 L 109.033 3.76 L 109.131 3.76 A 1.911 1.911 0 0 0 109.183 3.785 Q 109.293 3.835 109.522 3.931 A 3.033 3.033 0 0 1 109.656 3.99 Q 109.839 4.077 109.912 4.15 A 1.994 1.994 0 0 0 109.913 4.201 Q 109.916 4.315 109.93 4.604 A 81.95 81.95 0 0 0 109.937 4.736 A 51.338 51.338 0 0 1 109.946 4.934 Q 109.961 5.257 109.961 5.371 A 6.32 6.32 0 0 1 109.8 6.814 A 5.774 5.774 0 0 1 109.717 7.129 Q 109.473 7.959 109.473 8.838 A 1.616 1.616 0 0 0 109.621 9.536 Q 109.771 9.854 110.073 10.1 A 1.997 1.997 0 0 0 110.083 10.107 A 13.807 13.807 0 0 0 111.353 11.011 Q 112.012 11.426 112.622 11.89 A 1.618 1.618 0 0 1 113.017 12.311 A 1.419 1.419 0 0 1 113.233 13.086 A 1.416 1.416 0 0 1 113.175 13.499 A 1.094 1.094 0 0 1 112.842 14.014 A 1.37 1.37 0 0 1 112.087 14.342 A 1.83 1.83 0 0 1 111.865 14.356 Q 110.938 14.356 110.059 13.892 A 4.122 4.122 0 0 0 109.125 13.53 A 3.42 3.42 0 0 0 108.301 13.428 A 0.352 0.352 0 0 0 108.275 13.429 Q 108.233 13.432 108.156 13.444 A 4.529 4.529 0 0 0 108.106 13.452 A 4.356 4.356 0 0 1 108.046 13.462 Q 107.966 13.474 107.926 13.476 A 0.287 0.287 0 0 1 107.91 13.477 A 20.674 20.674 0 0 0 107.649 14.117 Q 107.521 14.446 107.389 14.814 A 35.093 35.093 0 0 0 107.3 15.064 A 62.99 62.99 0 0 0 106.824 16.473 A 72.264 72.264 0 0 0 106.665 16.968 Q 106.348 17.969 106.128 18.945 A 12.989 12.989 0 0 0 105.951 19.885 A 9.828 9.828 0 0 0 105.86 20.752 A 0.101 0.101 0 0 1 105.827 20.772 Q 105.747 20.805 105.51 20.824 A 4.336 4.336 0 0 1 105.493 20.825 A 21.308 21.308 0 0 1 105.365 20.835 Q 105.204 20.846 105.121 20.849 A 1.361 1.361 0 0 1 105.078 20.85 Q 104.297 20.85 103.882 20.142 A 4.425 4.425 0 0 1 103.41 18.97 A 5.327 5.327 0 0 1 103.32 18.53 Q 103.174 17.627 103.125 16.748 Q 103.078 15.902 103.031 15.508 A 5.479 5.479 0 0 0 103.027 15.479 Z M 5.713 14.307 L 5.713 14.746 A 5.479 5.479 0 0 0 6.439 14.695 Q 6.809 14.645 7.218 14.548 A 10.016 10.016 0 0 0 7.495 14.478 A 2.93 2.93 0 0 0 8.155 14.218 A 2.038 2.038 0 0 0 8.936 13.477 L 8.936 13.379 L 8.936 13.306 L 8.936 13.232 L 8.936 13.184 L 8.936 13.086 L 5.713 14.307 Z M 51.758 14.307 L 51.758 14.746 A 5.479 5.479 0 0 0 52.484 14.695 Q 52.854 14.645 53.263 14.548 A 10.016 10.016 0 0 0 53.54 14.478 A 2.93 2.93 0 0 0 54.2 14.218 A 2.038 2.038 0 0 0 54.981 13.477 L 54.981 13.379 L 54.981 13.306 L 54.981 13.232 L 54.981 13.184 L 54.981 13.086 L 51.758 14.307 Z M 97.803 14.307 L 97.803 14.746 A 5.479 5.479 0 0 0 98.529 14.695 Q 98.899 14.645 99.308 14.548 A 10.016 10.016 0 0 0 99.585 14.478 A 2.93 2.93 0 0 0 100.244 14.218 A 2.038 2.038 0 0 0 101.026 13.477 L 101.026 13.379 L 101.026 13.306 L 101.026 13.232 L 101.026 13.184 L 101.026 13.086 L 97.803 14.307 Z" vector-effect="non-scaling-stroke"/>
    </g>
</svg>