<svg width="174pt" height="234pt" viewBox="-2 -2 178 238"
    xmlns="http://www.w3.org/2000/svg">
    <g id="fontsvg1685182186407" stroke-linecap="round" fill-rule="evenodd" stroke="#b380ff" stroke-width="1px" fill="#6600ff">
        <path d="M 57.617 193.848 L 56.153 193.848 L 8.545 224.854 L 7.08 224.854 A 9.984 9.984 0 0 1 2.756 223.852 A 11.795 11.795 0 0 1 2.32 223.633 A 4.078 4.078 0 0 1 0.119 220.723 A 6.123 6.123 0 0 1 0 219.483 Q 0 217.53 1.099 215.943 A 11.233 11.233 0 0 1 3.337 213.566 A 13.065 13.065 0 0 1 3.906 213.135 A 26.3 26.3 0 0 1 5.081 212.311 Q 7.096 210.969 10.817 208.838 A 226.695 226.695 0 0 1 10.987 208.741 A 271.482 271.482 0 0 0 17.586 204.84 A 323.249 323.249 0 0 0 21.729 202.271 A 247.226 247.226 0 0 1 29.611 197.498 A 212.854 212.854 0 0 1 32.593 195.801 A 501.209 501.209 0 0 0 34.942 194.483 Q 37.525 193.023 38.997 192.139 A 52.994 52.994 0 0 0 39.795 191.651 A 12.015 12.015 0 0 1 40.501 191.005 Q 41.382 190.255 42.725 189.332 A 47.994 47.994 0 0 0 45.023 187.653 A 39.394 39.394 0 0 0 46.265 186.646 A 174.073 174.073 0 0 1 47.404 185.691 Q 47.857 185.314 48.274 184.973 A 99.284 99.284 0 0 1 49.073 184.327 Q 50.193 183.431 50.285 183.151 A 0.146 0.146 0 0 0 50.293 183.106 L 31.494 145.02 A 13.007 13.007 0 0 1 30.909 144.131 Q 30.384 143.252 30.216 142.57 A 2.793 2.793 0 0 1 30.152 142.213 Q 30.058 141.371 30.036 140.029 A 53.338 53.338 0 0 1 30.03 139.161 Q 30.03 131.837 37.11 131.837 A 3.018 3.018 0 0 1 37.648 131.899 Q 38.847 132.125 41.626 133.179 A 97.54 97.54 0 0 1 43.495 133.912 Q 46.354 135.064 50.05 136.732 A 265.842 265.842 0 0 1 50.293 136.841 A 517.247 517.247 0 0 1 55.542 139.252 A 601.701 601.701 0 0 1 61.035 141.846 A 3534.937 3534.937 0 0 0 66.406 144.41 A 2648.438 2648.438 0 0 0 71.289 146.729 Q 74.478 148.24 76.975 149.462 A 282.04 282.04 0 0 1 79.102 150.513 L 82.276 152.1 L 104.004 129.639 Q 104.665 126.998 107.607 123.364 A 41.075 41.075 0 0 1 108.277 122.559 A 1689.898 1689.898 0 0 0 111.908 118.287 A 1980.662 1980.662 0 0 0 115.723 113.77 A 80.434 80.434 0 0 0 121.328 106.3 A 71.369 71.369 0 0 0 122.559 104.371 A 24.817 24.817 0 0 0 124.212 101.234 Q 125.489 98.283 125.489 95.704 L 125.489 94.971 L 108.643 55.665 A 39.196 39.196 0 0 1 105.652 44.184 A 44.053 44.053 0 0 1 105.591 43.58 A 136.41 136.41 0 0 1 104.981 30.762 A 36.033 36.033 0 0 1 106.372 20.97 A 40.842 40.842 0 0 1 106.69 19.898 A 32.351 32.351 0 0 1 111.695 10.01 Q 114.99 5.616 119.629 2.808 Q 124.268 0.001 130.615 0.001 A 18.825 18.825 0 0 1 135.677 0.649 A 14.486 14.486 0 0 1 141.48 3.785 A 27.298 27.298 0 0 1 147.637 11.788 A 31.987 31.987 0 0 1 148.316 13.184 A 45.259 45.259 0 0 1 151.856 25.025 A 86.075 86.075 0 0 1 152.588 30.976 A 63.135 63.135 0 0 1 152.832 36.378 A 117.466 117.466 0 0 1 150.398 60.563 A 107.603 107.603 0 0 1 149.536 64.332 A 196.965 196.965 0 0 1 143.288 84.634 A 226.073 226.073 0 0 1 140.625 91.553 L 140.625 94.971 A 2365.29 2365.29 0 0 1 150.639 113.904 A 2593.754 2593.754 0 0 1 152.1 116.7 Q 157.959 127.93 162.598 140.015 Q 167.237 152.1 170.166 164.185 A 102.764 102.764 0 0 1 173.096 188.477 A 52.389 52.389 0 0 1 171.654 200.935 A 46.544 46.544 0 0 1 170.044 206.177 A 43.101 43.101 0 0 1 161.377 220.46 A 39.275 39.275 0 0 1 147.827 229.981 A 42.004 42.004 0 0 1 135.476 233.129 A 51.729 51.729 0 0 1 130.127 233.399 A 65.645 65.645 0 0 1 109.562 230.205 A 62.55 62.55 0 0 1 109.253 230.103 A 95.83 95.83 0 0 1 90.21 221.314 Q 81.055 215.821 72.876 208.741 Q 64.698 201.661 57.617 193.848 Z M 68.36 184.571 L 68.36 185.548 A 0.326 0.326 0 0 0 68.407 185.682 Q 68.611 186.066 69.702 187.257 Q 71.045 188.721 72.876 190.552 L 76.66 194.337 A 73.694 73.694 0 0 0 78.057 195.698 Q 78.61 196.223 79.115 196.676 A 35.524 35.524 0 0 0 80.078 197.51 A 9.332 9.332 0 0 0 80.513 197.915 Q 81.021 198.361 81.807 198.962 A 53.014 53.014 0 0 0 82.642 199.586 Q 84.473 200.928 86.304 202.515 A 428.099 428.099 0 0 0 88.074 204.041 A 340.298 340.298 0 0 0 89.722 205.445 Q 91.011 206.536 91.575 206.902 A 2.379 2.379 0 0 0 91.797 207.032 A 35.649 35.649 0 0 1 92.621 207.459 Q 93.961 208.174 96.086 209.412 A 215.204 215.204 0 0 1 96.192 209.473 L 102.051 212.891 A 242.959 242.959 0 0 0 104.92 214.539 A 208.122 208.122 0 0 0 107.666 216.065 A 753.672 753.672 0 0 0 108.596 216.572 Q 110.112 217.396 110.651 217.677 A 12.796 12.796 0 0 0 110.84 217.774 A 47.595 47.595 0 0 0 115.59 219.56 Q 118.538 220.483 121.216 220.826 A 75.76 75.76 0 0 0 130.86 221.436 A 31.975 31.975 0 0 0 136.859 220.901 A 22.991 22.991 0 0 0 143.433 218.629 Q 148.682 215.821 152.1 211.06 A 31.435 31.435 0 0 0 156.438 202.38 A 37.081 37.081 0 0 0 157.105 200.074 A 50.712 50.712 0 0 0 158.692 187.501 A 93.316 93.316 0 0 0 157.966 176.07 A 105.581 105.581 0 0 0 157.593 173.341 A 69.742 69.742 0 0 0 154.053 159.424 L 132.813 108.399 L 113.526 135.499 L 68.36 184.571 Z M 140.625 46.387 L 140.625 45.655 A 41.867 41.867 0 0 0 140.621 45.143 Q 140.602 43.717 140.503 39.551 A 102.656 102.656 0 0 0 140.173 33.513 A 130.679 130.679 0 0 0 139.649 28.443 A 46.359 46.359 0 0 0 138.483 22.266 A 36.546 36.546 0 0 0 136.963 17.701 A 11.244 11.244 0 0 0 135.865 15.618 Q 134.033 12.94 131.104 12.94 A 17.299 17.299 0 0 0 128.131 13.182 Q 126.439 13.477 125.047 14.133 A 10.199 10.199 0 0 0 124.512 14.405 A 10.585 10.585 0 0 0 121.931 16.346 A 9.245 9.245 0 0 0 120.484 18.311 A 17.516 17.516 0 0 0 119.091 21.649 A 22.078 22.078 0 0 0 118.531 23.926 A 34.743 34.743 0 0 0 117.921 30.305 A 38.157 38.157 0 0 0 117.92 30.518 Q 117.92 44.19 122.071 55.299 A 181.078 181.078 0 0 0 128.117 69.518 A 221.052 221.052 0 0 0 132.569 78.37 A 3.526 3.526 0 0 0 133.379 77.679 Q 134.023 76.955 134.589 75.721 A 13.993 13.993 0 0 0 134.766 75.318 A 34.854 34.854 0 0 0 135.878 72.269 A 43.171 43.171 0 0 0 136.475 70.191 A 104.949 104.949 0 0 0 137.146 67.475 A 83.432 83.432 0 0 0 137.696 64.942 Q 138.184 62.501 138.428 62.012 Q 138.428 61.555 138.749 59.816 A 81.453 81.453 0 0 1 138.794 59.571 Q 139.109 57.893 139.333 55.763 A 70.376 70.376 0 0 0 139.405 55.054 A 93.502 93.502 0 0 1 140.015 50.05 Q 140.295 48.18 140.504 47.027 A 35.798 35.798 0 0 1 140.625 46.387 Z M 52.735 153.321 L 49.317 153.321 A 2.282 2.282 0 0 0 49.337 153.597 Q 49.402 154.124 49.683 155.152 A 28.644 28.644 0 0 0 49.853 155.752 Q 50.108 156.613 50.293 156.983 A 131.082 131.082 0 0 1 50.82 157.914 Q 51.402 158.952 52.146 160.316 A 428.069 428.069 0 0 1 52.857 161.622 A 114.527 114.527 0 0 0 55.138 165.644 A 98.491 98.491 0 0 0 56.031 167.115 A 98.894 98.894 0 0 1 57.326 169.265 Q 57.905 170.256 58.397 171.16 A 57.58 57.58 0 0 1 58.716 171.754 Q 59.815 173.829 60.059 173.829 L 61.035 173.829 A 1.025 1.025 0 0 0 61.426 173.729 Q 62.235 173.381 63.909 171.806 A 35.807 35.807 0 0 0 63.965 171.754 A 2015.537 2015.537 0 0 0 66.223 169.617 A 2370.234 2370.234 0 0 0 68.604 167.359 A 126.428 126.428 0 0 0 70.923 165.101 A 98.448 98.448 0 0 0 72.998 162.965 A 1312.819 1312.819 0 0 1 73.46 162.474 Q 74.884 160.963 75.163 160.678 A 4.779 4.779 0 0 1 75.196 160.645 L 73.975 159.424 L 52.735 153.321 Z" vector-effect="non-scaling-stroke"/>
    </g>
</svg>
