<?xml version="1.0" standalone="no"?>
<!DOCTYPE svg PUBLIC "-//W3C//DTD SVG 20010904//EN"
 "http://www.w3.org/TR/2001/REC-SVG-20010904/DTD/svg10.dtd">
<svg version="1.0" xmlns="http://www.w3.org/2000/svg"
 width="1248.000000pt" height="1248.000000pt" viewBox="0 0 1248.000000 1248.000000"
 preserveAspectRatio="xMidYMid meet">
<g transform="translate(0.000000,1248.000000) scale(0.100000,-0.100000)"
fill="#000000" stroke="none">
<path d="M8427 12343 c-2 -2 -26 -5 -53 -8 -42 -4 -70 -7 -139 -19 -5 -1 -16
-5 -22 -9 -7 -5 -13 -6 -13 -3 0 7 -126 -37 -182 -64 -27 -12 -48 -25 -48 -29
0 -4 -6 -8 -13 -8 -12 0 -127 -73 -153 -97 -7 -6 -34 -30 -60 -53 -75 -63 -95
-83 -154 -153 -30 -36 -57 -67 -60 -70 -26 -25 -120 -182 -166 -277 -70 -146
-70 -146 -90 -213 -9 -30 -20 -66 -25 -80 -5 -14 -11 -34 -13 -45 -2 -11 -9
-38 -15 -60 -5 -22 -12 -56 -15 -75 -3 -19 -7 -45 -10 -57 -32 -146 -23 -831
11 -886 4 -6 1 -7 -7 -2 -7 5 -11 4 -8 -1 3 -5 9 -38 13 -74 4 -36 13 -101 20
-145 8 -43 12 -81 10 -84 -3 -2 0 -9 5 -16 5 -6 12 -29 16 -51 6 -38 65 -229
84 -269 5 -11 36 -85 70 -165 33 -80 65 -154 70 -165 47 -104 70 -160 70 -171
0 -8 5 -14 12 -14 6 0 8 -3 5 -6 -3 -4 -1 -16 5 -28 7 -11 13 -23 13 -26 1 -3
9 -23 19 -45 34 -77 39 -90 38 -97 -1 -5 3 -8 8 -8 5 0 9 -3 8 -7 -2 -7 91
-232 146 -353 11 -25 21 -47 21 -50 1 -3 9 -23 19 -45 10 -22 25 -58 34 -80 8
-22 22 -50 30 -62 7 -12 13 -23 12 -25 -1 -3 23 -66 40 -103 46 -102 70 -160
70 -171 0 -8 5 -14 12 -14 6 0 8 -3 5 -6 -3 -4 -1 -16 5 -28 7 -11 13 -23 13
-26 2 -6 9 -22 60 -140 49 -114 58 -134 60 -140 1 -3 9 -23 19 -45 31 -70 37
-89 40 -122 1 -18 -1 -33 -6 -33 -4 0 -5 -6 -2 -14 3 -8 0 -41 -7 -73 -7 -32
-12 -61 -11 -65 1 -5 -2 -8 -6 -8 -4 0 -8 -8 -9 -19 -2 -19 -73 -182 -83 -191
-4 -3 -10 -12 -14 -20 -12 -27 -103 -163 -179 -271 -62 -87 -200 -259 -208
-259 -5 0 -9 -6 -9 -13 0 -7 -8 -20 -17 -28 -10 -9 -34 -35 -55 -60 -20 -24
-46 -55 -58 -69 -12 -14 -30 -35 -41 -48 -10 -12 -19 -27 -19 -33 0 -5 -4 -7
-10 -4 -5 3 -10 3 -10 -2 0 -4 -16 -26 -35 -48 -19 -22 -38 -44 -42 -50 -19
-24 -110 -132 -130 -155 -13 -14 -23 -28 -23 -32 0 -3 -6 -13 -13 -20 -34 -35
-113 -173 -109 -190 1 -5 -2 -8 -8 -8 -6 0 -9 -3 -8 -7 8 -32 -14 -57 -359
-410 -62 -64 -113 -116 -113 -118 0 -1 -51 -53 -112 -117 -296 -302 -543 -559
-546 -567 -3 -9 -223 96 -233 111 -3 5 -10 10 -15 10 -16 1 -44 14 -268 122
-120 58 -219 106 -221 106 -2 0 -81 38 -176 84 -253 121 -293 140 -301 138 -5
-1 -8 2 -8 8 0 5 -6 10 -12 10 -7 0 -48 18 -90 39 -42 21 -79 36 -82 33 -3 -3
-6 0 -6 6 0 7 -3 11 -7 10 -5 -1 -34 10 -66 25 -32 15 -62 27 -67 27 -6 0 -10
5 -10 10 0 6 -3 9 -7 8 -9 -1 -32 8 -128 52 -142 66 -412 177 -550 226 -88 31
-249 24 -309 -14 -6 -3 -16 -7 -23 -8 -25 -4 -90 -76 -111 -122 -25 -58 -34
-81 -39 -107 -4 -24 -5 -264 0 -285 4 -21 39 -94 48 -100 10 -7 399 -796 399
-809 0 -6 4 -11 9 -11 7 0 15 -19 21 -50 1 -3 8 -12 15 -20 7 -8 15 -19 16
-25 3 -15 22 -55 49 -105 13 -25 24 -47 25 -50 2 -15 110 -226 117 -228 4 -2
8 -9 8 -16 0 -7 51 -116 113 -242 63 -126 140 -282 172 -347 66 -134 69 -113
-30 -192 -27 -22 -56 -47 -65 -55 -32 -29 -66 -56 -155 -123 -49 -37 -99 -74
-110 -82 -11 -8 -58 -44 -103 -80 -46 -36 -90 -65 -97 -65 -7 0 -18 -7 -25
-15 -7 -8 -16 -12 -21 -9 -5 3 -9 1 -9 -3 0 -5 -21 -20 -47 -33 -27 -14 -55
-30 -63 -36 -8 -6 -40 -25 -70 -41 -128 -69 -248 -138 -290 -167 -25 -17 -47
-30 -50 -29 -3 0 -27 -14 -55 -31 -27 -18 -57 -35 -65 -40 -19 -9 -42 -23
-113 -69 -31 -20 -62 -37 -67 -37 -6 0 -10 -4 -10 -10 0 -5 -4 -10 -9 -10 -5
0 -59 -31 -120 -70 -60 -38 -113 -70 -116 -70 -4 0 -21 -11 -39 -25 -18 -14
-36 -25 -40 -25 -5 0 -28 -13 -53 -30 -24 -16 -46 -30 -48 -30 -2 0 -39 -21
-82 -46 -76 -46 -103 -62 -180 -105 -70 -40 -228 -146 -272 -183 -47 -39 -110
-116 -128 -156 -48 -106 -39 -237 21 -308 28 -32 87 -72 98 -66 4 3 8 0 8 -5
0 -6 9 -11 19 -11 11 0 23 -5 26 -11 4 -6 13 -8 20 -5 7 2 16 2 19 -2 11 -10
36 -13 129 -16 80 -3 90 -1 115 20 15 13 31 24 35 24 7 0 64 37 77 50 7 7 43
29 60 37 8 4 17 9 20 13 3 3 26 19 52 35 27 17 48 34 48 38 0 5 4 6 9 2 5 -3
15 1 23 8 20 20 308 207 319 207 5 0 9 5 9 10 0 6 4 10 8 10 5 0 62 35 128 79
145 95 356 233 444 289 36 23 72 47 80 52 8 6 71 47 140 92 69 45 158 103 198
130 40 26 76 48 81 48 5 0 11 4 13 8 2 4 21 19 43 32 22 13 45 28 50 33 6 4
48 32 95 62 47 30 92 59 100 64 8 6 39 26 67 46 29 19 55 35 58 35 3 0 11 5
18 11 7 6 64 44 127 84 63 41 120 79 127 85 7 5 30 10 51 10 35 0 44 -6 118
-87 142 -155 466 -472 614 -600 24 -21 67 -59 95 -85 27 -26 53 -48 57 -48 3
0 22 -15 40 -32 19 -18 49 -44 68 -58 18 -14 39 -30 45 -37 7 -7 15 -9 19 -6
3 4 6 2 6 -4 0 -6 35 -37 78 -69 42 -32 79 -61 80 -66 2 -4 10 -8 18 -8 8 0
17 -7 20 -15 4 -8 10 -12 15 -9 5 3 9 0 9 -5 0 -6 7 -11 15 -11 8 0 15 -4 15
-9 0 -5 24 -24 53 -42 28 -18 54 -36 57 -39 3 -3 30 -21 60 -40 30 -19 60 -38
65 -43 17 -14 117 -76 183 -115 35 -20 85 -50 110 -65 26 -15 55 -31 65 -34 9
-3 17 -10 17 -15 0 -5 4 -7 9 -3 5 3 15 -1 23 -8 14 -13 57 -34 72 -35 5 0 12
-4 15 -9 12 -17 248 -125 431 -198 235 -93 535 -185 660 -201 19 -3 55 -9 80
-14 69 -14 149 -25 345 -45 118 -12 492 -6 573 10 10 2 45 6 77 10 70 9 71 9
152 28 34 8 64 12 67 9 3 -3 6 1 6 8 0 7 3 11 6 8 13 -14 280 80 404 142 96
48 232 126 265 152 6 5 37 28 70 53 183 137 374 340 481 510 10 17 21 32 24
35 26 25 174 313 205 400 59 165 77 217 78 233 1 9 4 17 7 17 3 0 6 8 7 18 0
9 4 28 7 42 4 14 9 36 12 50 2 14 9 45 14 70 5 25 12 61 15 80 3 19 8 46 10
60 24 118 34 445 21 675 -13 220 -13 221 -42 435 -10 69 -18 139 -20 155 -1
17 -3 30 -4 30 -3 0 -11 40 -14 70 -2 17 -5 30 -6 30 -1 0 -4 14 -6 30 -5 34
-38 182 -61 270 -9 33 -16 70 -17 83 0 12 -4 22 -7 22 -3 0 -6 6 -7 13 -2 22
-19 91 -44 177 -14 47 -31 108 -38 135 -7 28 -17 55 -21 60 -4 6 -8 13 -8 18
-1 4 -1 8 -2 10 0 1 -2 12 -5 24 -2 12 -17 61 -33 108 -17 47 -27 85 -24 85 3
0 -1 7 -8 17 -8 9 -13 17 -11 17 2 1 1 8 -2 16 -79 239 -207 585 -235 637 -5
11 -7 23 -4 27 3 3 1 6 -5 6 -7 0 -12 6 -12 14 0 7 -10 35 -22 62 -12 27 -23
51 -23 54 -1 3 -9 22 -18 44 -9 21 -17 40 -17 41 0 1 -14 33 -32 71 -17 38
-33 74 -34 79 -6 28 -267 563 -335 687 -20 37 -34 69 -31 72 3 3 0 6 -7 6 -7
0 -10 4 -7 9 4 5 3 11 -1 13 -5 1 -22 30 -39 63 -18 33 -53 101 -79 150 -26
50 -51 96 -57 103 -6 6 -7 12 -3 12 4 0 3 6 -2 13 -11 13 -63 108 -132 241
-23 44 -46 85 -52 93 -7 7 -8 13 -4 13 4 0 3 6 -3 13 -11 14 -27 41 -100 179
l-52 96 1 94 c1 56 7 104 16 121 7 15 10 27 6 27 -4 0 -2 5 5 12 7 7 12 20 12
30 0 10 5 18 10 18 6 0 10 6 9 13 -1 6 2 23 8 37 6 14 24 61 41 105 16 44 33
89 37 100 5 11 7 23 7 28 -1 4 2 7 6 7 5 0 9 6 9 13 0 11 39 128 68 207 7 19
32 96 55 170 51 165 49 159 50 165 0 3 7 23 15 46 9 23 17 51 20 63 2 12 23
89 45 171 41 151 84 331 95 395 3 19 10 53 15 75 5 22 11 58 14 80 4 23 9 52
11 65 3 14 8 45 11 70 3 25 8 52 9 60 3 14 6 36 20 150 1 14 6 50 9 80 4 30 9
84 11 120 2 36 4 65 5 65 6 0 13 258 13 445 -1 205 -5 303 -18 400 -21 162
-26 199 -31 225 -3 17 -7 41 -9 55 -2 14 -4 25 -5 25 -1 0 -3 9 -5 20 -1 11
-8 43 -15 70 -6 28 -14 59 -16 70 -7 27 -10 37 -17 55 -3 8 -13 38 -21 66 -29
105 -125 322 -179 408 -72 116 -127 185 -218 277 -87 86 -137 124 -229 168
-55 27 -82 37 -155 57 -31 9 -74 17 -105 19 -19 2 -35 4 -35 5 0 3 -185 6
-188 3z m113 -684 c0 7 8 7 24 1 13 -5 27 -6 30 -3 3 3 12 0 21 -7 8 -7 15 -9
15 -6 0 10 94 -46 103 -61 5 -7 17 -21 27 -31 34 -31 113 -198 122 -257 2 -11
6 -22 9 -25 12 -11 75 -281 84 -368 3 -20 7 -62 10 -92 3 -30 8 -71 10 -90 2
-19 4 -35 5 -35 1 0 3 -29 5 -65 2 -36 7 -108 11 -160 10 -139 10 -578 0 -630
-4 -25 -10 -56 -12 -70 -1 -14 -5 -36 -8 -50 -2 -14 -7 -50 -11 -80 -3 -30 -7
-71 -10 -90 -2 -19 -6 -62 -10 -95 -8 -72 -13 -112 -25 -185 -5 -30 -12 -72
-16 -94 -6 -39 -10 -59 -19 -96 -13 -51 -16 -66 -20 -85 -8 -46 -18 -87 -51
-220 -19 -77 -37 -147 -39 -155 -2 -8 -4 -16 -5 -17 -2 -2 -4 -7 -5 -13 -1 -5
-4 -12 -5 -15 -1 -3 -3 -8 -5 -12 -1 -5 -5 -21 -10 -38 -17 -62 -83 -192 -114
-224 -18 -18 -33 -31 -35 -30 -1 2 -21 40 -43 84 -22 44 -50 97 -62 118 -11
20 -21 39 -21 42 0 11 -66 140 -73 146 -5 3 -8 9 -8 13 1 3 -15 40 -34 81 -19
41 -35 79 -35 83 -1 4 -8 17 -16 29 -7 12 -23 44 -33 70 -11 26 -30 71 -42 98
-13 28 -24 52 -24 55 -1 3 -9 22 -18 44 -9 21 -17 40 -17 42 0 2 -11 28 -25
58 -14 30 -25 58 -25 61 0 4 -6 21 -14 38 -22 50 -73 188 -87 232 -6 22 -16
51 -22 65 -5 14 -11 32 -13 40 -1 8 -12 49 -23 90 -23 81 -52 216 -67 305 -3
17 -9 55 -14 85 -5 30 -12 82 -15 115 -3 33 -8 71 -10 85 -3 14 -7 77 -11 140
-3 63 -8 117 -10 119 -2 2 1 12 6 22 6 10 6 20 2 23 -13 8 -4 272 13 371 3 17
10 52 15 78 6 27 8 53 4 58 -3 5 -1 9 5 9 5 0 15 25 22 55 7 31 16 58 21 61 4
3 8 12 8 21 0 9 13 38 30 64 16 27 28 49 26 49 -5 0 22 33 59 74 51 56 192
139 255 150 14 3 25 5 25 6 0 4 61 11 107 13 27 1 48 6 48 10 0 4 9 3 20 -3
13 -7 20 -7 20 -1z m130 -5081 c23 -57 48 -116 55 -133 7 -16 30 -70 50 -120
46 -113 117 -284 148 -355 8 -19 25 -60 37 -90 12 -30 27 -68 35 -85 10 -24
59 -141 105 -250 4 -11 17 -40 28 -65 10 -25 26 -63 33 -85 8 -22 16 -42 19
-45 3 -3 6 -10 7 -16 1 -7 13 -36 27 -65 13 -30 39 -90 56 -134 17 -44 38 -93
45 -110 8 -16 30 -70 50 -120 21 -49 50 -120 66 -156 28 -64 50 -119 51 -129
1 -3 13 -32 28 -65 15 -33 57 -134 95 -225 72 -177 82 -201 113 -270 11 -25
23 -56 26 -70 4 -14 11 -34 16 -45 23 -52 95 -312 105 -375 2 -14 6 -35 9 -47
19 -75 50 -256 61 -363 29 -267 35 -367 36 -565 0 -150 -7 -263 -25 -410 -9
-72 -40 -216 -71 -328 -3 -9 -7 -25 -9 -35 -19 -74 -84 -234 -100 -244 -6 -4
-8 -8 -4 -8 4 0 -1 -16 -12 -35 -11 -19 -29 -52 -41 -73 -41 -73 -83 -132 -92
-132 -6 0 -8 -3 -4 -6 6 -7 -11 -30 -70 -90 -23 -24 -40 -44 -37 -44 10 0
-137 -125 -179 -152 -23 -15 -46 -31 -52 -36 -5 -4 -26 -17 -45 -28 -19 -10
-38 -23 -41 -27 -3 -5 -9 -8 -13 -8 -3 1 -30 -10 -59 -23 -63 -30 -191 -72
-242 -80 -21 -4 -48 -9 -60 -12 -12 -3 -37 -7 -56 -9 -19 -2 -34 -4 -34 -5 0
-1 -29 -3 -65 -5 -36 -2 -81 -6 -102 -7 -20 -2 -34 0 -32 4 3 5 -5 5 -18 0
-13 -4 -36 -6 -53 -4 -16 1 -70 4 -120 7 -118 7 -200 13 -200 15 0 1 -20 3
-45 5 -133 11 -318 52 -425 94 -11 5 -58 23 -105 41 -47 19 -96 41 -110 51
-14 9 -29 18 -35 19 -5 2 -35 17 -65 34 -30 17 -58 30 -62 28 -5 -1 -8 3 -8 8
0 6 -4 10 -9 10 -5 0 -64 32 -131 70 -67 39 -126 70 -131 70 -5 0 -9 5 -9 10
0 6 -6 10 -14 10 -8 0 -16 3 -18 8 -1 4 -21 17 -43 28 -22 12 -80 45 -130 74
-144 84 -156 91 -235 133 -41 22 -84 48 -96 58 -11 11 -23 19 -27 19 -4 0 -15
8 -25 17 -18 18 -65 59 -156 136 -27 23 -65 56 -85 73 -20 17 -79 63 -131 103
-146 111 -305 255 -486 441 -273 281 -282 292 -280 332 1 18 28 55 92 125 51
54 113 122 140 151 26 29 64 70 83 91 20 20 68 72 106 115 39 42 90 99 115
125 59 64 201 218 236 256 15 17 68 74 118 129 108 117 115 124 231 251 50 54
111 121 138 148 26 27 47 50 47 52 0 2 19 23 43 48 23 24 83 89 132 142 50 54
101 110 115 125 14 15 59 64 100 109 41 46 91 99 110 120 19 21 76 81 125 135
50 54 104 113 120 130 17 18 68 75 115 125 47 51 106 116 133 144 26 29 95
120 155 202 59 83 110 152 115 153 4 2 7 8 7 12 0 5 21 38 48 74 26 35 97 135
157 222 61 86 118 165 128 175 9 11 17 23 17 27 0 5 9 17 20 27 11 10 20 24
20 31 0 7 3 14 8 16 4 2 41 50 81 108 41 58 80 108 85 112 6 4 7 8 3 8 -4 0 2
10 13 23 12 12 31 38 43 57 11 19 24 37 27 40 7 5 86 118 110 156 8 13 15 24
16 24 0 0 20 -46 44 -102z m-4140 -2256 c14 -5 45 -15 70 -22 25 -7 54 -16 65
-20 11 -4 74 -22 140 -39 66 -18 128 -37 137 -42 10 -5 25 -9 33 -9 9 0 45 -9
81 -21 35 -11 70 -22 77 -23 22 -5 102 -27 117 -33 8 -3 20 -7 26 -8 7 -2 54
-15 105 -30 52 -15 101 -29 109 -30 8 -2 16 -4 18 -5 2 -3 18 -7 31 -9 5 0 25
-15 44 -32 l35 -31 -26 -31 c-45 -52 -403 -406 -502 -497 -51 -47 -98 -91
-106 -97 -7 -7 -15 -13 -19 -13 -3 0 -17 -10 -31 -23 -15 -14 -39 -24 -63 -25
l-39 -3 -50 88 c-28 48 -62 108 -76 133 -15 25 -29 53 -33 63 -3 9 -9 17 -14
17 -5 0 -9 4 -9 8 0 5 -36 68 -79 140 -44 73 -77 132 -74 132 3 0 0 7 -7 15
-14 16 -58 95 -87 155 -9 19 -19 37 -23 40 -25 22 -83 168 -95 237 -5 31 -4
32 32 35 53 4 183 -8 213 -20z"/>
</g>
</svg>
